<?xml version="1.0" encoding="utf-8"?>
<!-- Generator: Adobe Illustrator 22.0.1, SVG Export Plug-In . SVG Version: 6.00 Build 0)  -->
<svg version="1.1" id="Layer_1" xmlns="http://www.w3.org/2000/svg" xmlns:xlink="http://www.w3.org/1999/xlink" x="0px" y="0px"
	 viewBox="0 0 100 56.9" style="enable-background:new 0 0 100 56.9;" xml:space="preserve">
<path d="M98.5,56.3c-0.3,0-6.3-1-9.4-5.2c-1.4-1.9-1.7-3.9-2-5.9c-0.4-2.3-0.7-4.8-3.2-7.7c-2-2.5-4.3-2.7-6.9-2.9
	c-2.7-0.3-5.8-0.6-8.6-3.6c-2.1-2.3-2.6-5.1-3.2-7.8c-0.6-2.7-1.1-5.2-3-7c-2.1-2-3.9-2.4-6.2-2.8c-1.8-0.3-3.9-0.7-6.2-2.1
	c-5.1-2.9-6.9-9.4-7-9.7l3-0.8c0,0.1,1.6,5.6,5.5,7.8c1.9,1.1,3.5,1.4,5.2,1.7c2.4,0.5,5,1,7.8,3.6c2.6,2.5,3.3,5.7,3.9,8.6
	c0.5,2.4,1,4.7,2.5,6.3c1.9,2.1,4.1,2.3,6.5,2.6c2.9,0.3,6.1,0.6,9,4.1c3,3.6,3.5,6.7,3.9,9.3c0.3,1.8,0.5,3.2,1.5,4.5
	c2.3,3.2,7.3,4,7.4,4L98.5,56.3z M36.8,36.3L19,18.7l-2.2,2.2l17.8,17.6L36.8,36.3z"/>
</svg>
